<?xml version="1.0" encoding="UTF-8"?>
<svg width="386px" height="483px" viewBox="0 0 386 483" version="1.1" xmlns="http://www.w3.org/2000/svg" xmlns:xlink="http://www.w3.org/1999/xlink">
    <!-- Generator: Sketch 56.3 (81716) - https://sketch.com -->
    <title>Combined Shape</title>
    <desc>Created with Sketch.</desc>
    <defs>
        <linearGradient x1="17.9602375%" y1="100%" x2="82.0397625%" y2="0%" id="linearGradient-1">
            <stop stop-color="#C30030" offset="0%"></stop>
            <stop stop-color="#FF1F56" offset="100%"></stop>
        </linearGradient>
    </defs>
    <g id="Page-1" stroke="none" stroke-width="1" fill="none" fill-rule="evenodd">
        <g id="AJAX-home" transform="translate(-857.000000, -91.000000)" fill="url(#linearGradient-1)">
            <g id="Group-5" transform="translate(830.000000, 91.000000)">
                <path d="M113.523892,150.170058 C72.451435,182.009546 46,231.919932 46,288.029796 C46,384.183337 123.678596,462.131183 219.5,462.131183 C315.321404,462.131183 393,384.183337 393,288.029796 C393,247.59202 379.26131,210.37421 356.212301,180.820086 C355.259466,179.598332 359.031568,175.699718 361.625,170.853982 C363.353955,167.623491 364.916455,164.654903 366.3125,161.948219 C394.883972,195.719069 413,240.761307 413,288.531529 C413,395.491952 326.590957,482.200507 220,482.200507 C113.409043,482.200507 27,395.491952 27,288.531529 C27,226.285734 56.2639549,170.898593 101.739276,135.467938 C103.121262,137.316866 105.020589,139.809246 107.437256,142.945078 C108.978923,144.701144 111.007801,147.109471 113.523892,150.170058 Z M220.277268,1.42108547e-14 L224.028153,10.7827907 L235.434286,11.0150009 L226.337829,17.9176349 L229.650736,28.8502386 L220.277268,22.3296277 L210.907543,28.8502386 L214.216706,17.9176349 L205.120249,11.0150009 L216.530126,10.7827907 L220.277268,1.42108547e-14 Z M294.349007,17.2932892 L292.892825,28.619152 L303,33.9225323 L291.777293,36.0348956 L289.860673,47.2933426 L284.391569,37.2708528 L273.09025,38.9225411 L280.925182,30.6191556 L275.867851,20.3869277 L286.184656,25.2708315 L294.349007,17.2932892 Z M165.132149,21.2674536 L160.067331,31.4996815 L167.89852,39.8068124 L156.604688,38.1476334 L151.12061,48.1663778 L149.211477,36.9079308 L138,34.7918222 L148.107175,29.4959326 L146.65848,18.1663245 L154.815344,26.1476121 L165.132149,21.2674536 Z" id="Combined-Shape"></path>
            </g>
        </g>
    </g>
</svg>