<?xml version="1.0" encoding="UTF-8"?>
<svg width="56px" height="72px" viewBox="0 0 56 72" version="1.1" xmlns="http://www.w3.org/2000/svg" xmlns:xlink="http://www.w3.org/1999/xlink">
    <!-- Generator: Sketch 56.3 (81716) - https://sketch.com -->
    <title>Combined Shape</title>
    <desc>Created with Sketch.</desc>
    <g id="Page-1" stroke="none" stroke-width="1" fill="none" fill-rule="evenodd">
        <g id="AJAX-home" transform="translate(-47.000000, -47.000000)" fill="#878787">
            <path d="M75.4058641,47 L76.5939326,50.3968052 L80.2067517,50.4699563 L77.3255077,52.6444308 L78.3748497,56.0884302 L75.4058641,54.034301 L72.4380643,56.0884302 L73.4862205,52.6444308 L70.6049765,50.4699563 L74.2189813,50.3968052 L75.4058641,47 Z M98.8676084,52.4477488 L98.4063723,56.0156331 L101.607754,57.6863091 L98.0530345,58.3517478 L97.4459576,61.8983947 L95.7136541,58.7411003 L92.1340346,59.2614167 L94.6156986,56.6456762 L93.0138218,53.4223098 L96.2816031,54.9608419 L98.8676084,52.4477488 Z M57.9390044,53.6996939 L56.3347562,56.9230603 L58.8152345,59.5399807 L55.2379863,59.0173046 L53.5009401,62.1734192 L52.8962346,58.6267722 L49.3450717,57.9601536 L52.5464539,56.2918374 L52.0875891,52.7227732 L54.6712231,55.2370462 L57.9390044,53.6996939 Z M56.788641,102.299611 C56.8550401,102.292532 58.4213459,102.140331 60.0161085,102.496647 C61.6203567,102.852964 63.8257533,103.62341 64.8798381,104.055237 L65.0505785,104.123669 C68.0148212,105.34364 68.9823501,105.557194 69.2977455,105.552474 C69.2941884,105.454546 69.1981469,105.233913 68.6823687,104.761971 C68.5922557,104.679381 68.5448278,104.563755 68.5448278,104.448129 C68.5448278,104.346661 68.5827701,104.241654 68.657469,104.159064 C68.8199095,103.986805 69.0890628,103.976187 69.2633603,104.136647 C69.5977268,104.44223 70.6138693,105.375496 69.9285363,106.169539 C69.5479276,106.611985 68.6728831,106.535294 64.723326,104.912992 L64.5525857,104.843381 C63.5269577,104.422172 61.3832173,103.674143 59.8299541,103.327266 C58.3751037,103.001626 56.8929824,103.145568 56.8775683,103.147928 C56.6416146,103.170345 56.4305605,103.000446 56.4068466,102.766834 C56.3843183,102.532043 56.5526873,102.324388 56.788641,102.299611 Z M74.5712519,99.7624491 C74.5949659,99.5276578 74.8048343,99.3577585 75.0384166,99.3813557 C75.2601419,99.4049528 75.4237681,99.5901902 75.4237681,99.8061038 C75.4237681,99.8190822 75.4225824,99.8332405 75.4225824,99.8485786 C75.4178397,99.8910534 75.3134983,100.873873 74.8475194,101.868492 C74.586666,102.426564 73.9902603,103.501413 73.533767,104.310794 C74.0068601,104.134995 74.5107814,103.954477 74.7929773,103.878966 L77.0707014,103.313815 C77.3030981,103.271341 77.46791,103.401125 77.5236377,103.630017 C77.5841083,103.857729 77.4999238,104.080722 77.2722699,104.140894 L75.0087742,104.704866 C74.4443823,104.853527 72.742907,105.528405 72.7263072,105.535484 C72.5591239,105.602736 72.3646696,105.556722 72.2437285,105.418678 C72.1263445,105.281815 72.1061876,105.083599 72.1974863,104.926679 C72.2117147,104.901902 73.6440368,102.423024 74.0720734,101.507456 C74.4763962,100.648521 74.5700662,99.771888 74.5712519,99.7624491 Z M66.4798177,108.605587 C66.5402883,108.379055 66.7738706,108.243372 67.0027102,108.304724 C67.050138,108.316523 68.2014499,108.632724 69.034995,109.524695 C69.5199451,110.043832 69.9218964,110.951141 70.0523231,111.542249 C70.1566645,112.007112 70.217135,112.886105 70.2195064,112.92268 C70.2361062,113.158651 70.0582516,113.361587 69.8222979,113.378104 C69.5851585,113.394622 69.3812186,113.215284 69.3658045,112.980493 C69.3634331,112.971054 69.3065196,112.128637 69.2164067,111.727486 C69.1120653,111.249644 68.7705845,110.495716 68.4077612,110.105184 C67.7461422,109.396091 66.7892847,109.130623 66.7809848,109.128263 C66.5521453,109.066911 66.4169758,108.83212 66.4798177,108.605587 Z M89.2488778,102.433289 C89.8974541,101.745433 90.9728814,101.923591 92.0435659,102.218555 C93.178278,102.533577 94.5050731,102.991361 94.5608009,103.011418 C94.7825262,103.089289 94.9010959,103.332339 94.8252113,103.554152 C94.7457696,103.775965 94.5003303,103.892771 94.2786049,103.81608 C94.2679337,103.811361 92.9221675,103.346497 91.8147264,103.040915 C90.7321849,102.740052 90.1511933,102.732972 89.8832258,103.009059 C89.8701831,103.033836 89.8476549,103.094008 89.8476549,103.24031 C89.8476549,103.57067 89.9638532,104.322238 90.5685587,105.999993 C90.7013568,106.375188 90.7772414,106.794036 90.7772414,107.183389 C90.7772414,107.772137 90.6029439,108.299533 90.1772787,108.526065 C89.5370022,108.869403 88.6477294,108.423418 88.1058658,107.805173 C88.1094229,107.809892 88.1165371,107.815792 88.1212799,107.819331 C87.1798364,106.855389 86.8039704,106.660713 86.6747294,106.621778 C86.5063604,106.840051 86.1708081,107.656511 85.9135119,108.779734 C85.6004878,110.143647 85.216322,111.480424 84.2879211,111.526439 C84.0982096,111.535877 83.9132408,111.461547 83.7674001,111.318784 C83.2990497,110.85746 83.2279079,109.46405 83.2279079,108.614554 C83.2279079,108.336108 83.2362078,108.115475 83.2385792,108.006928 C83.243322,107.951475 83.243322,107.892482 83.243322,107.82995 C83.243322,107.157432 83.102224,106.146296 82.9611261,105.792339 C82.7156868,105.879648 82.2212511,106.212368 81.931941,106.526209 C81.7872859,106.68549 80.4628623,108.142612 79.4728052,109.984367 C78.5538899,111.692798 77.739316,113.921546 77.7322018,113.943963 C77.6515744,114.165776 77.4049494,114.280222 77.1832241,114.199992 C76.9614987,114.119762 76.8453004,113.875532 76.9259278,113.653719 C76.9614987,113.56051 77.7677728,111.347101 78.7175161,109.583216 C79.7360299,107.689547 81.0474109,106.224166 81.3023358,105.950439 C81.3141928,105.937461 82.5366465,104.678555 83.309721,104.959361 C84.0531531,105.227188 84.0982096,107.475993 84.0982096,107.957374 C84.0982096,108.010468 84.0958382,108.042324 84.0958382,108.044684 C84.0863526,108.219302 84.0827955,108.396281 84.0827955,108.573259 C84.0827955,109.477029 84.1847655,110.344223 84.3246777,110.635647 C84.4622186,110.53064 84.7242577,110.12477 85.0775954,108.589777 C85.2933923,107.654151 85.7427715,106.050727 86.3462913,105.811216 C86.8762979,105.598842 87.5225028,105.983475 88.735471,107.227044 C88.7402138,107.232943 88.7449566,107.237662 88.7496993,107.243562 C89.1255653,107.66831 89.620001,107.857087 89.7717702,107.776856 C89.8832258,107.717864 90.0539662,107.110238 89.7575419,106.285519 C88.9382252,103.997778 88.7959415,102.91821 89.2488778,102.433289 Z M83.6584345,102.134785 C83.9418161,100.782671 85.2709826,100.501865 85.9314159,100.54198 C86.1673696,100.554958 86.3464099,100.755534 86.3345529,100.990325 C86.3191388,101.225117 86.1163846,101.404455 85.8804309,101.391476 C85.7594898,101.385577 84.6959195,101.35844 84.4967224,102.308224 C84.4291377,102.627965 84.46708,102.880454 84.6105493,103.08103 C84.8429459,103.40903 85.3302675,103.554152 85.5840066,103.587188 C85.9646154,103.637922 86.6973762,103.40431 86.8183173,103.261548 C86.948744,103.073951 87.1206701,102.602008 87.1989261,102.348339 C87.2712536,102.122987 87.5072073,101.996742 87.7324898,102.063994 C87.9577722,102.133606 88.0834561,102.371936 88.0194285,102.597289 C87.9933432,102.677519 87.7716178,103.392512 87.5190643,103.752368 C87.1704694,104.249087 86.0345715,104.507476 85.4713654,104.431965 C84.9650728,104.364713 84.2880397,104.103965 83.9121737,103.57421 C83.6264207,103.174239 83.5410505,102.689318 83.6584345,102.134785 Z M63.8078493,87.2967993 C63.9228619,87.0926842 64.1837153,87.0195332 64.3888409,87.1351591 C64.5299389,87.2130295 64.6081949,87.356972 64.6081949,87.5068137 C64.6081949,87.577605 64.5904094,87.6483964 64.5548385,87.7144683 C64.5240104,87.7675618 63.8149635,89.0241084 63.523282,89.4417774 C63.3134136,89.7438205 62.8166065,90.7820937 62.615038,91.2858922 C62.9387333,91.3791008 63.5244677,91.4959066 64.0236462,91.5714173 C64.2370717,91.6032734 64.3888409,91.7861511 64.3888409,91.991446 C64.3888409,92.0138633 64.3864695,92.0351007 64.3840981,92.057518 C64.3485272,92.2887697 64.1291732,92.4492301 63.8955909,92.4138345 C61.8301065,92.0999928 61.6724088,91.8333454 61.6724088,91.4911871 C61.6724088,91.0900361 62.5960669,89.2801371 62.8189779,88.9580365 C63.0881312,88.5710437 63.7995494,87.3109576 63.8078493,87.2967993 Z M66.1231601,85.0971939 C66.2927147,84.9331939 66.5630537,84.9379134 66.7266799,85.1078126 C66.8073073,85.1904025 66.847621,85.2977694 66.847621,85.4039565 C66.847621,85.5160428 66.8025645,85.6269492 66.7160086,85.710719 C66.4148415,85.9997837 66.1255314,86.3230642 65.9915477,86.5071217 C66.0543896,86.537798 66.1421312,86.570834 66.2405441,86.5802728 L66.4255128,86.5897117 C67.0906889,86.6215678 68.3297424,86.6782009 68.3297424,87.537136 L68.3392279,87.872215 C68.3439707,87.9866611 68.3498992,88.1093661 68.3498992,88.2344308 C68.3498992,88.7134523 68.2669004,89.2125314 67.7570507,89.3045601 C67.4867117,89.3541141 67.1535308,89.2502868 66.8013788,89.14174 C66.6958518,89.1075242 66.5476396,89.0626897 66.4302556,89.0343731 C66.4089131,89.1653371 66.3887562,89.3493947 66.3709707,89.5110349 C66.3282857,89.9121859 66.276115,90.4124449 66.1397598,90.9646174 C66.0994461,91.132157 66.0828464,91.3103152 66.0828464,91.483754 C66.0828464,91.9851928 66.2180158,92.4535956 66.2891576,92.5527035 L66.3330284,92.6093366 C66.5002117,92.8311495 66.7017802,93.0942574 66.7017802,93.3762429 C66.7017802,93.4458544 66.691109,93.5166458 66.6614665,93.588617 C66.61641,93.7007033 66.4942832,93.8977393 66.1729593,93.9496529 L66.1753307,93.9496529 L66.1480597,93.9590918 C65.8682352,94.0570198 65.5409828,94.1042141 63.8264648,93.8257681 C63.5928824,93.7868328 63.4363704,93.5673796 63.4743127,93.3361278 C63.512255,93.1048761 63.731609,92.9467754 63.9651913,92.9845308 C65.0595897,93.1638689 65.4923692,93.187466 65.6915663,93.1803869 C65.6773379,93.1603293 65.6038247,93.064761 65.6038247,93.064761 C65.3915849,92.7827754 65.2315158,92.1255957 65.2315158,91.4813943 C65.2315158,91.2324447 65.2552298,90.984675 65.3085861,90.7628621 C65.4295272,90.2673226 65.4793265,89.7989198 65.5196402,89.4225457 C65.5836679,88.8043012 65.6275387,88.3960711 65.9761336,88.2238121 C66.2607009,88.0810495 66.612853,88.1895963 67.0563037,88.3276394 C67.1796162,88.3653948 67.3586564,88.4220279 67.4867117,88.4503445 C67.4926402,88.3972509 67.4938259,88.3358984 67.4938259,88.2686466 C67.4938259,88.1447618 67.4878974,88.011438 67.4843403,87.9111503 C67.4843403,87.9111503 67.4772261,87.6964165 67.4748548,87.6055676 C67.3728848,87.5442151 67.0966174,87.4746036 66.3863848,87.4403878 L66.1551739,87.4274094 C65.6322815,87.3766756 65.0761895,87.045136 65.0761895,86.5330786 C65.0761895,86.4032944 65.0761895,86.1012513 66.1231601,85.0971939 Z M62.6968511,82.8757612 C62.8166065,82.6893439 63.0679743,82.467531 63.5825669,82.467531 C64.3663127,82.467531 65.7014076,82.6952432 67.6091942,83.778351 C69.3746972,84.7835882 73.806833,87.7320482 76.3062825,89.7472421 C78.8792452,91.8214288 81.1747548,93.8047666 82.29761,94.92327 C83.741789,96.3591547 84.4899639,97.1413992 84.4069651,97.8457732 C84.3215949,98.5666651 83.7761743,98.740104 83.2947812,98.8923054 L83.0220709,98.9843341 C82.4315937,99.1896291 82.29761,99.378406 82.29761,99.4291398 C82.29761,99.4904923 82.3474093,99.6839887 82.3817945,99.8232117 C82.5122211,100.32819 82.6580619,100.89924 82.3794231,101.302751 C81.9751004,101.897398 81.2541965,101.877341 80.778732,101.864362 C80.6328912,101.860823 80.4526653,101.856103 80.3886376,101.876161 C80.3151244,101.898578 80.1870691,101.971729 80.0613852,102.041341 C79.6309772,102.280852 78.911259,102.683182 78.3207819,102.207701 C77.8891881,101.857283 77.7729898,101.347586 77.7729898,100.887442 C77.7729898,100.521686 77.846503,100.190147 77.8891881,99.9966505 L78.0611142,99.3028952 C78.1132849,99.1141183 78.1737554,98.8781471 78.2010265,98.7259457 C78.0741569,98.6716723 77.8868167,98.6020608 77.7469045,98.5525069 C77.0959568,98.3153558 76.688077,98.1537156 76.4912512,97.9059458 C76.2351407,97.585025 76.1604418,97.1319603 76.1604418,96.7272697 C76.1604418,96.6045647 76.1687416,96.4865791 76.1794129,96.3792122 C76.2137981,96.0122771 76.3869099,95.2713275 76.4106238,95.1875578 C76.4663516,94.9598456 76.6940055,94.817083 76.9252164,94.8725362 C77.1220421,94.9197305 77.2536545,95.0931693 77.2536545,95.2866657 C77.2536545,95.3208815 77.2465403,95.3527376 77.2394261,95.3869534 C77.1919982,95.5969678 77.0532717,96.1975144 77.028372,96.4559029 C77.0224436,96.5467518 77.0177008,96.635241 77.0177008,96.7201906 C77.0177008,97.0139747 77.0710571,97.2534855 77.157613,97.3679315 C77.2678829,97.4693991 77.7706184,97.6534567 78.0409574,97.7525645 C78.6432915,97.9708379 78.8911022,98.0687659 79.0049291,98.2964781 C79.052357,98.3861472 79.0713282,98.4887946 79.0713282,98.6056004 C79.0713282,98.8356723 78.9954435,99.1235571 78.8899165,99.5188089 L78.7251046,100.177168 C78.6634483,100.463873 78.6302488,100.703384 78.6302488,100.90278 C78.6302488,101.211902 78.7061334,101.420737 78.8602741,101.545801 C78.9978149,101.656708 79.3855379,101.439614 79.6416485,101.298032 C79.8147602,101.202463 79.9783864,101.109255 80.1372698,101.06206 C80.3376527,100.999528 80.5617494,101.006607 80.8000745,101.012506 C81.2245541,101.024305 81.5328353,101.017226 81.6715619,100.82255 C81.6786761,100.801312 81.6857903,100.769456 81.6857903,100.729341 C81.6857903,100.546463 81.596863,100.210204 81.5518065,100.033226 C81.494893,99.7996146 81.440351,99.5978592 81.440351,99.4291398 C81.440351,98.8982047 81.8778732,98.4781759 82.7351322,98.1796724 L83.0386707,98.0805645 C83.5378491,97.9212839 83.5414062,97.8917875 83.5556346,97.7466653 C83.558006,97.7431257 83.558006,97.7360466 83.558006,97.7313271 C83.558006,97.3820898 82.4363365,96.2683058 81.6917188,95.5261764 C80.5890204,94.4265507 78.3172248,92.4656301 75.767976,90.4103211 C73.2981689,88.4187243 68.9265037,85.5068399 67.1847147,84.5193005 C65.4417399,83.5282215 64.263157,83.319387 63.5825669,83.319387 C63.4829683,83.319387 63.4367261,83.3335453 63.417755,83.3429841 C63.4165693,83.352423 63.4130122,83.360682 63.4130122,83.3760201 C63.4130122,83.4491712 63.4379118,83.5872143 63.5280248,83.7830704 C63.6110236,83.9624085 64.0912309,84.3729983 64.4872538,84.6455451 C64.6070092,84.728135 64.6710368,84.8614587 64.6710368,84.9971421 C64.6710368,85.079732 64.6473229,85.1635018 64.5951522,85.2378327 C64.4611684,85.432509 64.1943866,85.4797032 64.0011179,85.3463795 C63.7639785,85.1847392 62.9731186,84.6148688 62.7513932,84.1393869 C62.5853956,83.7818905 62.4419262,83.2721928 62.6968511,82.8757612 Z M74.8855802,95.3851836 C74.9519793,95.7898742 74.9863645,96.0022483 74.9863645,96.1473706 C74.9863645,96.1933849 74.9851788,96.2323202 74.9768789,96.2677159 C74.9472365,96.4352554 74.8476379,96.5768381 74.5014144,97.0393416 C74.1682335,97.4900466 73.7093687,98.1047515 73.4603723,98.6356867 L73.1414198,99.354219 C72.8331385,100.059773 72.63157,100.526996 72.2817894,100.73583 C72.0221217,100.891571 71.4695869,101.001298 70.5909853,101.162938 L69.7930112,101.319859 C69.4076596,101.407168 68.8598675,101.628981 68.4199739,101.809499 C68.0607077,101.956981 67.8508393,102.041931 67.7097413,102.072607 C67.4500737,102.12924 67.1299355,102.032492 66.5370869,101.841355 C66.2228772,101.739888 65.8647967,101.625442 65.5849721,101.573528 C64.7111134,101.415427 64.5332588,100.964722 64.5332588,100.468003 C64.5332588,100.405471 64.5356302,100.342938 64.5415587,100.279226 C64.540373,100.276866 64.5154733,100.038535 63.7518844,99.5323772 C63.6250148,99.4474276 62.4867456,98.6651831 62.3978183,97.6457876 C62.3942612,97.6044926 62.3918898,97.5620178 62.3918898,97.5219027 C62.3918898,96.8163489 62.9135966,96.2276008 63.3001338,95.7922339 L63.5277877,95.5267663 C63.5526873,95.4960901 63.5621729,95.4618743 63.5621729,95.4300182 C63.5621729,95.3132124 63.448346,95.194047 63.4329319,95.1763491 C63.3558616,95.0961189 63.3119908,94.988752 63.3119908,94.8802053 C63.3119908,94.8188528 63.3262192,94.7586801 63.3523045,94.7020471 C63.4270034,94.5427665 63.5882582,94.4424787 63.7649271,94.4542773 L65.2790623,94.5486658 C65.515016,94.5628241 65.6940563,94.7657593 65.6798279,95.0005506 C65.6644138,95.2353419 65.4616596,95.4123203 65.2268916,95.398162 C65.2268916,95.398162 64.814269,95.3733851 64.4099463,95.3486081 C64.4123177,95.3804642 64.4218033,95.4099606 64.4218033,95.4441764 C64.4218033,95.6412124 64.3613327,95.8500469 64.2024493,96.0518022 L63.9427816,96.3562051 C63.6333147,96.7054424 63.2503345,97.1384495 63.2503345,97.5230826 L63.2503345,97.5714567 C63.2918339,98.0386796 63.8728255,98.5873126 64.2285346,98.8232838 C65.0241374,99.3518593 65.397632,99.8155426 65.397632,100.276866 C65.397632,100.296924 65.397632,100.316981 65.3964463,100.338219 C65.3893321,100.405471 65.3869607,100.458564 65.3869607,100.502219 C65.3869607,100.670938 65.4450599,100.682737 65.7391128,100.73583 C66.074665,100.798363 66.4612023,100.922247 66.8014974,101.030794 C67.0504938,101.111024 67.4228026,101.23137 67.5425581,101.236089 C67.6314853,101.210132 67.8852245,101.107485 68.0950929,101.021355 C68.5634433,100.829039 69.1479919,100.590708 69.6032996,100.488061 L70.435659,100.32524 C70.9004523,100.239111 71.680641,100.096348 71.8418958,100.00432 C71.9616512,99.9217297 72.1798194,99.4179312 72.3541169,99.0156003 L72.6849264,98.2770105 C72.9706794,97.6658451 73.4580009,97.0098452 73.81371,96.5331834 C73.9310941,96.3762626 74.0662635,96.1922051 74.1255484,96.1001763 C74.1148771,95.9810109 74.0745634,95.7249821 74.0425496,95.5244066 C73.9868218,95.1893275 73.9216085,94.8094139 73.9061944,94.5262485 L73.9085658,93.8891263 C73.9133086,93.7841191 73.9180514,93.6484357 73.9180514,93.5292703 C73.9180514,93.4431408 73.8895947,93.2826804 73.7852533,93.2354861 C73.6358555,93.1375581 73.344174,92.9476013 73.344174,92.9476013 C73.019293,92.704551 72.8568525,92.3234575 72.8687095,92.0461914 C72.8793807,91.8019612 72.9623795,91.5612706 73.007436,91.4055296 C73.0513068,91.2533282 73.1924048,90.9005513 73.3038603,90.632724 C73.0109931,90.4203499 72.4039162,89.9802636 71.7683825,89.5201198 C71.8324102,90.4144506 71.9225232,91.6485799 71.9225232,91.6485799 C71.9237089,91.6580188 71.9237089,91.6698173 71.9237089,91.6780763 C71.9237089,91.7712849 71.8928807,91.860954 71.8359673,91.9364648 C71.5751139,92.2798028 71.1221776,92.8921481 71.019022,93.0785653 C70.709555,93.629558 70.2293477,93.9846946 69.6246422,94.10504 L68.2231482,94.358709 C67.9943087,94.3681478 67.7571692,94.2407234 67.7156698,94.0106515 C67.6741704,93.77704 67.8887816,93.5457882 68.0832359,93.5186516 L69.4574589,93.269702 C69.8167251,93.1977307 70.083507,92.9995149 70.2696614,92.6644359 C70.4060166,92.4202057 70.8542101,91.8184792 71.0569643,91.5506519 C71.0356217,91.2639469 70.7913681,87.7385374 70.7913681,87.7385374 L71.8940664,88.5573574 L74.0804919,90.1419039 C74.1943188,90.2244938 74.2571608,90.354278 74.2571608,90.4876017 C74.2571608,90.5430549 74.2464895,90.599688 74.2215899,90.6527815 C74.0935346,90.9595441 73.8718092,91.4975584 73.8303098,91.6379612 C73.6702407,92.0119755 73.7971103,92.2314287 74.0401782,92.393069 C74.2666463,92.5440906 74.4765147,92.6738747 74.4765147,92.6738747 C74.7255111,92.8390545 74.7741247,93.1328387 74.7741247,93.53163 C74.7741247,93.6519753 74.7705676,93.7805796 74.7658248,93.9209824 L74.761082,94.4766946 C74.7741247,94.7150255 74.8334096,95.0701621 74.8855802,95.3851836 Z M77.5528059,76.3398313 C78.6804038,75.9375004 80.0131274,75.5162918 81.6019615,75.604781 C83.1303251,75.6897307 83.7385877,75.8950256 84.4251063,76.1746515 C85.0748683,76.4412989 86.0127547,77.00527 86.0518827,77.0288671 C86.2558226,77.1515722 86.3198503,77.4123203 86.1977235,77.6128958 C86.074411,77.815831 85.8123719,77.8795433 85.608432,77.7568382 C85.5989464,77.7521188 84.688331,77.2034858 84.0978539,76.9639751 C83.5417619,76.7362629 83.0556261,76.5404068 81.5545336,76.4554572 C80.1257686,76.375227 78.934143,76.7504211 77.8409303,77.1421333 C76.8722157,77.4866512 75.5454207,78.143831 74.0004573,79.0393416 C72.6072632,79.8487228 70.9591443,80.7100176 69.9904297,81.1347658 C69.1355421,81.50996 67.20997,82.1942764 66.6325355,82.1895812 C66.3942104,82.1871973 66.2056846,81.992521 66.2091921,81.7565498 C66.2104274,81.5217585 66.4060674,81.3341614 66.6408354,81.3353413 C66.9431882,81.3400607 68.5758931,80.8244637 69.6453919,80.354881 C70.5880211,79.9419314 72.2017548,79.0983344 73.5688636,78.3042914 C74.6774904,77.6612699 76.2675102,76.7987952 77.5528059,76.3398313 Z M52.7186171,89.2532364 L47,85.0612083 L47.583363,82.9823022 L54.6667175,82.3050649 L54.1450108,84.1656977 L52.6474753,84.2600861 L51.9775564,86.6492944 L53.2023816,87.528287 L52.7186171,89.2532364 Z M51.3242373,84.3249782 L48.6113624,84.3886904 L48.6066196,84.4075681 L50.8784152,85.9213233 L51.3242373,84.3249782 Z M55.9971882,82.1118045 C56.1987567,81.8180203 56.4015109,81.2009557 56.456053,80.8800349 C56.5426089,80.3656177 56.5912225,79.8252437 55.704321,79.2058193 L50.9650897,75.9848126 L51.9800464,74.5418488 L57.1556143,78.0684382 C58.3235259,78.8837186 58.8061046,79.9904235 57.9156461,81.2847255 C57.7294917,81.5549125 57.4864238,81.9100491 57.4864238,81.9100491 L55.9971882,82.1118045 Z M59.3007775,75.7073105 L57.4522757,68.8842037 L59.2082931,67.6182183 L65.1747209,71.4798867 L63.6024866,72.6113686 L62.3705473,71.7571529 L60.3501194,73.2119152 L60.7579992,74.6584186 L59.3007775,75.7073105 Z M61.29512,70.9890667 L59.1312228,69.3549662 L59.1158087,69.3667648 L59.9457967,71.9600881 L61.29512,70.9890667 Z M68.090943,66.8889493 L65.4752952,64.3003454 L67.480309,63.8118851 L69.0821857,65.663079 L69.6714772,63.2774103 L71.5543642,62.8196262 L70.4196521,66.3226185 L73.3198672,69.1920281 L71.2686112,69.6911072 L69.4390806,67.6322586 L68.7845758,70.2975531 L66.8329183,70.773035 L68.090943,66.8889493 Z M86.5648153,114.359745 L86.5565154,114.363284 L86.7900977,116.627428 L86.448617,116.779629 L84.9356675,115.085356 L84.9285533,115.088896 L85.8154547,117.060435 L85.3814896,117.253931 L84.319105,114.8895 L85.0328946,114.569759 L86.3679896,116.095313 L86.3739181,116.091773 L86.1296644,114.082478 L86.8268543,113.774536 L87.8856819,116.137788 L87.4517167,116.332464 L86.5648153,114.359745 Z M89.2221996,114.803252 C89.3336552,114.804432 89.5589376,114.778475 89.7747345,114.645152 C89.9478463,114.533065 90.0474448,114.33603 89.9063469,114.117756 C89.8067483,113.962015 89.6715788,113.950217 89.4071684,113.966735 L89.1297153,113.982073 C88.8356624,113.999771 88.586666,113.916001 88.4076257,113.634015 C88.159815,113.242303 88.3530837,112.834073 88.7218355,112.601641 C88.9554178,112.455339 89.1569863,112.411685 89.2316852,112.390447 L89.4249538,112.738505 C89.3040127,112.762102 89.1415722,112.785699 88.9542321,112.904864 C88.7502922,113.029929 88.7147213,113.203368 88.809577,113.35321 C88.9151041,113.518389 89.0656876,113.51013 89.2316852,113.500692 L89.5530091,113.485353 C89.9027898,113.465296 90.1138439,113.527828 90.3071125,113.834591 C90.5916798,114.280576 90.4078967,114.693526 89.9893457,114.957814 C89.7699917,115.095857 89.5802802,115.171368 89.4249538,115.173727 L89.2221996,114.803252 Z M90.9348205,111.556407 L90.4783272,111.918623 L90.240002,111.622479 L91.524112,110.605443 L91.75888,110.902767 L91.3059437,111.260263 L92.6908379,112.992292 L92.3197148,113.288435 L90.9348205,111.556407 Z M92.4320003,109.788865 L93.4054576,108.829642 L93.6722394,109.097469 L93.04382,109.722793 L93.5287701,110.212433 L94.1263614,109.621325 L94.3931433,109.892692 L93.7967376,110.48144 L94.3374155,111.025354 L94.9954774,110.374073 L95.2646307,110.64426 L94.2674594,111.62826 L92.4320003,109.788865 Z M100.620662,102.588794 L99.9756424,102.494406 L99.6045192,103.302607 L100.094212,103.732074 L99.8962007,104.165082 L97.8900012,102.29619 L98.1081695,101.824247 L100.825787,102.143988 L100.620662,102.588794 Z M99.311652,103.060736 L99.6009621,102.433053 L98.3583515,102.225398 L98.3547945,102.233657 L99.311652,103.060736 Z M98.2966953,106.87639 L96.0806274,105.517196 L96.4387079,104.941427 C96.8631875,104.253571 97.4667073,104.117887 98.1982824,104.567412 C98.9440859,105.024017 99.0330132,105.689455 98.6524044,106.301801 L98.2966953,106.87639 Z M96.6426478,105.304822 L98.2374104,106.281743 L98.3204092,106.14488 C98.6014194,105.690635 98.4200078,105.294204 97.933872,104.99688 C97.4465505,104.698376 97.0090282,104.712535 96.7268323,105.169139 L96.6426478,105.304822 Z M96.3391094,109.460275 L94.3068245,107.839153 L94.8154886,107.20911 C95.1059844,106.849254 95.4628792,106.737167 95.8351881,107.034491 C96.0995986,107.244505 96.1458407,107.551268 95.9976286,107.806117 L96.0071142,107.812016 C96.0770703,107.747124 96.180226,107.689311 96.4221082,107.77662 L97.4074225,108.130577 L97.092027,108.524649 L96.2715246,108.199009 C96.0675847,108.118779 95.9407151,108.171872 95.8304453,108.311095 L95.7628606,108.393685 L96.637905,109.0898 L96.3391094,109.460275 Z M95.4901502,108.174232 L95.6110913,108.02439 C95.7699748,107.826174 95.7723462,107.6138 95.5684063,107.447441 C95.3360096,107.263383 95.1794976,107.336534 95.0135,107.545369 L94.8901875,107.69875 L95.4901502,108.174232 Z M83.4292393,117.895065 L83.0877585,117.342892 L82.2257567,117.582403 L82.2150855,118.232504 L81.7514779,118.358748 L81.8961329,115.632101 L82.3976828,115.491698 L83.9070752,117.762921 L83.4292393,117.895065 Z M82.2210139,117.204849 L82.8897471,117.018432 L82.2494707,115.941224 L82.2411708,115.942403 L82.2210139,117.204849 Z M99.9259617,97.93733 L99.9224046,97.945589 L101.810034,99.2292722 L101.708064,99.5855887 L99.4303403,99.6422218 L99.4279689,99.6516606 L101.514796,100.249848 L101.383183,100.705272 L98.8813625,99.9855599 L99.0959737,99.2387111 L101.129444,99.2080348 L101.133001,99.1997758 L99.4303403,98.0883515 L99.6402087,97.3627401 L102.14203,98.0812724 L102.010417,98.5366968 L99.9259617,97.93733 Z M50.7832038,91.7984216 L51.001372,91.7984216 C51.001372,105.329009 62.0651117,116.335885 75.6626861,116.335885 C77.138879,116.335885 78.6162576,116.206101 80.0568796,115.947713 L80.0971933,116.162446 C78.6423429,116.422015 77.150736,116.554159 75.6626861,116.554159 C61.9441706,116.554159 50.7832038,105.448175 50.7832038,91.7984216 Z M75.6625675,67.259896 L75.6625675,67.0416227 C89.381083,67.0416227 100.539679,78.1476065 100.539679,91.7985396 C100.539679,93.2556617 100.412809,94.7163233 100.15907,96.1392296 L99.9444586,96.1014742 C100.194641,94.6903665 100.32151,93.2438631 100.32151,91.7985396 C100.32151,78.2679518 89.2601419,67.259896 75.6625675,67.259896 Z M49.1384047,91.7984216 L50.1521758,91.7984216 C50.1521758,105.795052 61.5953385,117.184202 75.662449,117.184202 C77.1896268,117.184202 78.7203618,117.048518 80.2119688,116.780691 L80.391009,117.77295 C78.8401172,118.051396 77.2489117,118.191799 75.662449,118.191799 C61.0380609,118.191799 49.1384047,106.351944 49.1384047,91.7984216 Z M75.6625675,66.4125235 L75.6625675,65.4037467 C90.2881413,65.4037467 102.185426,77.2447808 102.185426,91.7983036 C102.185426,93.3545336 102.049071,94.9143031 101.777546,96.4315979 L100.781561,96.2557993 C101.041228,94.7951377 101.172841,93.2979005 101.172841,91.7983036 C101.172841,77.8004929 89.729678,66.4125235 75.6625675,66.4125235 Z M48.3248979,91.7984216 L48.5442519,91.7984216 C48.5442519,106.677585 60.7083185,118.781727 75.6623304,118.781727 C77.284364,118.781727 78.9099548,118.638964 80.4928604,118.355799 L80.529617,118.569353 C78.9360401,118.857237 77.2985924,119 75.6623304,119 C60.5885631,119 48.3248979,106.79793 48.3248979,91.7984216 Z M75.6625675,64.8132288 L75.6625675,64.5961353 C90.7363348,64.5961353 103,76.7982053 103,91.7988936 C103,93.4023178 102.857716,95.0081017 102.579078,96.5714108 L102.363281,96.5324755 C102.639548,94.9833247 102.780646,93.3893393 102.780646,91.7988936 C102.780646,76.9185506 90.6153937,64.8132288 75.6625675,64.8132288 Z M88.2148314,74.409351 C92.3458001,75.6128041 94.5820248,78.7122856 94.5820248,83.4199107 C94.5820248,89.5079673 90.7913512,93.7613479 85.3644155,93.7613479 C80.3228314,93.7613479 78.5976422,89.5811184 77.5672714,87.0821835 L77.2388333,86.3022988 C76.9969511,85.7619247 76.6708844,85.4209464 76.241662,85.2593061 C75.3583177,84.9289465 74.21412,85.4551622 73.7837119,85.653378 C73.5691007,85.751306 73.3153616,85.6580974 73.215763,85.4457234 C73.1173501,85.2321694 73.2110202,84.9796803 73.4256314,84.8817522 C73.9461524,84.6434213 75.3251181,84.0086588 76.5416434,84.4640832 C77.1866626,84.7071335 77.6834697,85.2085723 78.0178363,85.956601 L78.3581313,86.7600829 C79.3671596,89.2094638 80.8943374,92.9106718 85.3644155,92.9106718 C90.2898013,92.9106718 93.7259515,89.0077084 93.7259515,83.4199107 C93.7259515,79.5204869 92.1181462,76.8811492 89.042448,75.5962861 C89.0222911,76.603883 88.9807917,78.5789619 88.9748632,78.881005 C89.3400579,79.1500121 90.1498891,79.7871343 90.6621102,80.5316234 C91.3450717,81.5132635 91.5003981,82.6294073 91.5075122,82.6766015 C91.5110693,82.6954792 91.5110693,82.7143569 91.5110693,82.7344144 C91.5110693,82.9432489 91.355743,83.1261266 91.1423175,83.155623 C90.9063638,83.1874791 90.6917526,83.024659 90.6585531,82.7910475 C90.6573674,82.7816087 90.5174552,81.8235657 89.9613632,81.0141845 C89.3874858,80.1859256 88.3120585,79.4579545 88.3037587,79.4508754 C88.1840033,79.3694653 88.1128614,79.232602 88.1140471,79.0886596 L88.2148314,74.409351 Z" id="Combined-Shape"></path>
        </g>
    </g>
</svg>