<?xml version="1.0" encoding="UTF-8"?>
<svg width="260px" height="252px" viewBox="0 0 260 252" version="1.1" xmlns="http://www.w3.org/2000/svg" xmlns:xlink="http://www.w3.org/1999/xlink">
    <!-- Generator: Sketch 56.3 (81716) - https://sketch.com -->
    <title>XMLID_90_</title>
    <desc>Created with Sketch.</desc>
    <defs>
        <linearGradient x1="0%" y1="3.33237575%" x2="100%" y2="96.6676242%" id="linearGradient-1">
            <stop stop-color="#E21044" offset="0%"></stop>
            <stop stop-color="#292961" offset="100%"></stop>
        </linearGradient>
        <filter x="-6.4%" y="-6.6%" width="112.7%" height="113.2%" filterUnits="objectBoundingBox" id="filter-2">
            <feGaussianBlur stdDeviation="5" in="SourceGraphic"></feGaussianBlur>
        </filter>
    </defs>
    <g id="Page-1" stroke="none" stroke-width="1" fill="none" fill-rule="evenodd">
        <g id="Artboard" transform="translate(-128.000000, -132.000000)" fill="url(#linearGradient-1)" fill-rule="nonzero">
            <path d="M143.644383,334.485332 L178.831333,368.479369 C181.163473,370.733246 184.329112,372 187.627448,372 C190.926614,372 194.091424,370.733246 196.423564,368.479369 L257.999689,308.990806 L319.575814,368.479369 C321.908783,370.733246 325.073594,372 328.37193,372 C331.671095,372 334.835905,370.733246 337.168874,368.479369 L372.355824,334.485332 C377.214172,329.791692 377.214172,322.182354 372.355824,317.488714 L310.780528,258.00015 L372.355824,198.510785 C374.689623,196.256909 376,193.200193 376,190.012877 C376,186.824759 374.689623,183.768044 372.355824,181.514167 L337.169704,147.52013 C332.312185,142.82649 324.434163,142.82649 319.576644,147.520931 L258.000518,207.008694 L196.423564,147.520931 C191.566045,142.827291 183.688023,142.827291 178.830504,147.520931 L143.644383,181.514167 C141.310585,183.768044 140,186.824759 140,190.012076 C140,193.199392 141.310585,196.256107 143.644383,198.509984 L205.219679,257.999349 L143.644383,317.488714 C138.785206,322.182354 138.785206,329.791692 143.644383,334.485332 Z" id="XMLID_90_" filter="url(#filter-2)"></path>
        </g>
    </g>
</svg>