<?xml version="1.0" encoding="UTF-8"?>
<svg width="19px" height="19px" viewBox="0 0 19 19" version="1.1" xmlns="http://www.w3.org/2000/svg" xmlns:xlink="http://www.w3.org/1999/xlink">
    <!-- Generator: Sketch 56.3 (81716) - https://sketch.com -->
    <title>Combined Shape</title>
    <desc>Created with Sketch.</desc>
    <g id="Page-1" stroke="none" stroke-width="1" fill="none" fill-rule="evenodd">
        <g id="AJAX-home-Menu" transform="translate(-907.000000, -375.000000)" fill="#FFFFFF">
            <path d="M916.071068,381.242641 L921.727922,375.585786 C922.508971,374.804738 923.775301,374.804738 924.556349,375.585786 C925.337398,376.366835 925.337398,377.633165 924.556349,378.414214 L918.899495,384.071068 L924.556349,389.727922 C925.337398,390.508971 925.337398,391.775301 924.556349,392.556349 C923.775301,393.337398 922.508971,393.337398 921.727922,392.556349 L916.071068,386.899495 L910.414214,392.556349 C909.633165,393.337398 908.366835,393.337398 907.585786,392.556349 C906.804738,391.775301 906.804738,390.508971 907.585786,389.727922 L913.242641,384.071068 L907.585786,378.414214 C906.804738,377.633165 906.804738,376.366835 907.585786,375.585786 C908.366835,374.804738 909.633165,374.804738 910.414214,375.585786 L916.071068,381.242641 Z" id="Combined-Shape"></path>
        </g>
    </g>
</svg>