<?xml version="1.0" encoding="UTF-8"?>
<svg width="33px" height="122px" viewBox="0 0 33 122" version="1.1" xmlns="http://www.w3.org/2000/svg" xmlns:xlink="http://www.w3.org/1999/xlink">
    <!-- Generator: Sketch 56.3 (81716) - https://sketch.com -->
    <title>Group 4</title>
    <desc>Created with Sketch.</desc>
    <g id="Page-1" stroke="none" stroke-width="1" fill="none" fill-rule="evenodd">
        <g id="AJAX-home-founder" transform="translate(-1034.000000, -71.000000)">
            <g id="Group-4" transform="translate(1050.500000, 132.000000) rotate(-270.000000) translate(-1050.500000, -132.000000) translate(990.000000, 116.000000)">
                <path d="M0.494153678,26.7347834 L5.26526549,31.5058764 C5.58148786,31.82221 6.01072712,32 6.45795911,32 C6.90530355,32 7.33443035,31.82221 7.65065272,31.5058764 L15.9999578,23.1566043 L24.3492629,31.5058764 C24.6655978,31.82221 25.0947246,32 25.5419566,32 C25.989301,32 26.4184278,31.82221 26.7347626,31.5058764 L31.5058744,26.7347834 C32.1646336,26.0760269 32.1646336,25.0080497 31.5058744,24.3492932 L23.1566818,16.0000211 L31.5058744,7.65063653 C31.8223217,7.33430296 32,6.90529031 32,6.45794763 C32,6.0104925 31.8223217,5.58147985 31.5058744,5.26514628 L26.7348751,0.494053328 C26.0762284,-0.164703184 25.0080221,-0.164703184 24.3493754,0.494165782 L16.0000703,8.84332543 L7.65065272,0.494165782 C6.99200606,-0.16459073 5.9237997,-0.16459073 5.26515304,0.494165782 L0.494153678,5.26514628 C0.1777064,5.58147985 0,6.0104925 0,6.45783518 C0,6.90517786 0.1777064,7.3341905 0.494153678,7.65052408 L8.84334633,15.9999086 L0.494153678,24.3492932 C-0.164717893,25.0080497 -0.164717893,26.0760269 0.494153678,26.7347834 Z" id="XMLID_90_" fill="#E21044"></path>
                <path d="M44.9941537,26.7347834 L49.7652655,31.5058764 C50.0814879,31.82221 50.5107271,32 50.9579591,32 C51.4053036,32 51.8344304,31.82221 52.1506527,31.5058764 L60.4999578,23.1566043 L68.8492629,31.5058764 C69.1655978,31.82221 69.5947246,32 70.0419566,32 C70.489301,32 70.9184278,31.82221 71.2347626,31.5058764 L76.0058744,26.7347834 C76.6646336,26.0760269 76.6646336,25.0080497 76.0058744,24.3492932 L67.6566818,16.0000211 L76.0058744,7.65063653 C76.3223217,7.33430296 76.5,6.90529031 76.5,6.45794763 C76.5,6.0104925 76.3223217,5.58147985 76.0058744,5.26514628 L71.2348751,0.494053328 C70.5762284,-0.164703184 69.5080221,-0.164703184 68.8493754,0.494165782 L60.5000703,8.84332543 L52.1506527,0.494165782 C51.4920061,-0.16459073 50.4237997,-0.16459073 49.765153,0.494165782 L44.9941537,5.26514628 C44.6777064,5.58147985 44.5,6.0104925 44.5,6.45783518 C44.5,6.90517786 44.6777064,7.3341905 44.9941537,7.65052408 L53.3433463,15.9999086 L44.9941537,24.3492932 C44.3352821,25.0080497 44.3352821,26.0760269 44.9941537,26.7347834 Z" id="XMLID_90_" fill="#F6F6F6"></path>
                <path d="M89.4941537,26.7347834 L94.2652655,31.5058764 C94.5814879,31.82221 95.0107271,32 95.4579591,32 C95.9053036,32 96.3344304,31.82221 96.6506527,31.5058764 L104.999958,23.1566043 L113.349263,31.5058764 C113.665598,31.82221 114.094725,32 114.541957,32 C114.989301,32 115.418428,31.82221 115.734763,31.5058764 L120.505874,26.7347834 C121.164634,26.0760269 121.164634,25.0080497 120.505874,24.3492932 L112.156682,16.0000211 L120.505874,7.65063653 C120.822322,7.33430296 121,6.90529031 121,6.45794763 C121,6.0104925 120.822322,5.58147985 120.505874,5.26514628 L115.734875,0.494053328 C115.076228,-0.164703184 114.008022,-0.164703184 113.349375,0.494165782 L105.00007,8.84332543 L96.6506527,0.494165782 C95.9920061,-0.16459073 94.9237997,-0.16459073 94.265153,0.494165782 L89.4941537,5.26514628 C89.1777064,5.58147985 89,6.0104925 89,6.45783518 C89,6.90517786 89.1777064,7.3341905 89.4941537,7.65052408 L97.8433463,15.9999086 L89.4941537,24.3492932 C88.8352821,25.0080497 88.8352821,26.0760269 89.4941537,26.7347834 Z" id="XMLID_90_" fill="#F6F6F6"></path>
            </g>
        </g>
    </g>
</svg>