<?xml version="1.0" encoding="UTF-8"?>
<svg width="397px" height="386px" viewBox="0 0 397 386" version="1.1" xmlns="http://www.w3.org/2000/svg" xmlns:xlink="http://www.w3.org/1999/xlink">
    <!-- Generator: Sketch 56.3 (81716) - https://sketch.com -->
    <title>Group 5</title>
    <desc>Created with Sketch.</desc>
    <g id="Page-1" stroke="none" stroke-width="1" fill="none" fill-rule="evenodd" opacity="0.149999991">
        <g id="AJAX-home-Menu" transform="translate(-563.000000, -191.000000)" fill="#FFFFFF">
            <g id="Group-5" transform="translate(563.000000, 191.000000)">
                <path d="M6.18294889,322.488325 L65.8800468,380.039634 C69.8366839,383.855408 75.2074106,386 80.803266,386 C86.4005285,386 91.7698482,383.855408 95.7264852,380.039634 L200.194648,279.326539 L304.66281,380.039634 C308.620854,383.855408 313.990174,386 319.58603,386 C325.183292,386 330.552612,383.855408 334.510656,380.039634 L394.207754,322.488325 C402.450279,314.542075 402.450279,301.659599 394.207754,293.713349 L289.740998,193.000254 L394.207754,92.2858032 C398.167205,88.4700294 400.390351,83.2950644 400.390351,77.8989933 C400.390351,72.5015658 398.167205,67.3266007 394.207754,63.510827 L334.512063,5.95951827 C326.270945,-1.98673215 312.905335,-1.98673215 304.664217,5.96087475 L200.196055,106.672613 L95.7264852,5.96087475 C87.4853675,-1.98537568 74.1197575,-1.98537568 65.8786398,5.96087475 L6.18294889,63.510827 C2.22349775,67.3266007 0,72.5015658 0,77.8976368 C0,83.2937079 2.22349775,88.468673 6.18294889,92.2844467 L110.649704,192.998898 L6.18294889,293.713349 C-2.06098296,301.659599 -2.06098296,314.542075 6.18294889,322.488325 Z" id="XMLID_90_"></path>
            </g>
        </g>
    </g>
</svg>