<?xml version="1.0" encoding="UTF-8"?>
<svg width="32px" height="32px" viewBox="0 0 32 32" version="1.1" xmlns="http://www.w3.org/2000/svg" xmlns:xlink="http://www.w3.org/1999/xlink">
    <!-- Generator: Sketch 56.3 (81716) - https://sketch.com -->
    <title>XMLID_90_</title>
    <desc>Created with Sketch.</desc>
    <g id="Page-1" stroke="none" stroke-width="1" fill="none" fill-rule="evenodd" opacity="0.149999991">
        <g id="AJAX-home" transform="translate(-442.000000, -180.000000)" fill="#C0C0C0">
            <g id="Group-12" transform="translate(353.000000, 91.000000)">
                <path d="M89.4941537,115.734783 L94.2652655,120.505876 C94.5814879,120.82221 95.0107271,121 95.4579591,121 C95.9053036,121 96.3344304,120.82221 96.6506527,120.505876 L104.999958,112.156604 L113.349263,120.505876 C113.665598,120.82221 114.094725,121 114.541957,121 C114.989301,121 115.418428,120.82221 115.734763,120.505876 L120.505874,115.734783 C121.164634,115.076027 121.164634,114.00805 120.505874,113.349293 L112.156682,105.000021 L120.505874,96.6506365 C120.822322,96.334303 121,95.9052903 121,95.4579476 C121,95.0104925 120.822322,94.5814799 120.505874,94.2651463 L115.734875,89.4940533 C115.076228,88.8352968 114.008022,88.8352968 113.349375,89.4941658 L105.00007,97.8433254 L96.6506527,89.4941658 C95.9920061,88.8354093 94.9237997,88.8354093 94.265153,89.4941658 L89.4941537,94.2651463 C89.1777064,94.5814799 89,95.0104925 89,95.4578352 C89,95.9051779 89.1777064,96.3341905 89.4941537,96.6505241 L97.8433463,104.999909 L89.4941537,113.349293 C88.8352821,114.00805 88.8352821,115.076027 89.4941537,115.734783 Z" id="XMLID_90_"></path>
            </g>
        </g>
    </g>
</svg>